<svg width="60" height="25" viewBox="0 0 60 25" fill="none" xmlns="http://www.w3.org/2000/svg">
<path d="M39.2265 0.648804C39.0582 0.648899 38.8915 0.690488 38.736 0.771194C38.5805 0.851901 38.4392 0.970141 38.3203 1.11916C38.0852 1.41313 37.9442 1.82836 37.9442 2.25461V21.6368C37.9442 22.063 38.0793 22.4709 38.3203 22.7722C38.4393 22.9212 38.5806 23.0394 38.7362 23.1201C38.8917 23.2007 39.0585 23.2422 39.2268 23.2422C39.3952 23.2422 39.562 23.2007 39.7175 23.1201C39.8731 23.0394 40.0144 22.9212 40.1334 22.7722C40.3685 22.4783 40.5095 22.063 40.5095 21.6368V2.25388C40.5095 1.82762 40.3743 1.41974 40.1334 1.11842C40.0144 0.969318 39.873 0.851028 39.7174 0.770319C39.5618 0.68961 39.395 0.648802 39.2265 0.648804ZM19.6901 7.48066C19.6901 6.59434 19.1159 5.87559 18.4089 5.87559C17.7019 5.87559 17.1277 6.59434 17.1277 7.48066V21.6353C17.1277 22.5216 17.7019 23.2404 18.4089 23.2404C19.1159 23.2404 19.6901 22.5216 19.6901 21.6353V7.48066Z" fill="white"/>
<path d="M20.0521 2.25684C20.0437 2.79531 19.8669 3.30824 19.5596 3.68553C19.2524 4.06239 18.8392 4.2735 18.4088 4.2735C17.9785 4.2735 17.5653 4.06239 17.2581 3.68553C16.9508 3.30824 16.774 2.79531 16.7656 2.25684C16.7654 1.71117 16.9386 1.18775 17.247 0.801688C17.3993 0.610565 17.5804 0.458925 17.7797 0.355457C17.979 0.25199 18.1927 0.19873 18.4086 0.19873C18.6244 0.19873 18.8381 0.25199 19.0374 0.355457C19.2367 0.458925 19.4178 0.610565 19.5702 0.801688C19.8785 1.18775 20.0523 1.71117 20.0521 2.25684Z" fill="white"/>
<path d="M35.6275 10.998C34.3957 7.51005 31.4812 5.04512 28.156 5.47137C27.0349 5.61956 25.9565 6.09046 25.0053 6.84715C24.0538 7.60435 23.2552 8.62658 22.6721 9.83388C22.0888 11.0419 21.7366 12.4021 21.6431 13.8084C21.549 15.215 21.7171 16.6305 22.1326 17.9416C22.548 19.2531 23.2003 20.4267 24.0385 21.3707C24.8765 22.3141 25.8776 23.0022 26.9636 23.3815C28.0493 23.7606 29.1906 23.8198 30.2978 23.5546C31.405 23.2894 32.448 22.7069 33.3448 21.8528C33.4957 21.7081 33.6188 21.5231 33.7051 21.3112C33.7915 21.0995 33.8391 20.8658 33.8438 20.6277C33.8535 20.2055 33.7287 19.7956 33.497 19.4882C33.2653 19.1808 32.9455 19.001 32.6079 18.9881C32.3177 18.9765 32.0331 19.0896 31.8015 19.3085C30.9138 20.1658 29.8104 20.5979 28.6902 20.527C27.7805 20.469 26.9032 20.085 26.1631 19.421C25.4197 18.7578 24.843 17.8433 24.5005 16.7848C24.4538 16.6421 24.4509 16.4828 24.4925 16.3377C24.534 16.1925 24.6171 16.0717 24.7256 15.9984C24.7975 15.9501 24.8778 15.9249 24.9595 15.9249H33.8603C34.2891 15.9272 34.7088 15.7698 35.0659 15.4728C35.4229 15.1759 35.7013 14.7528 35.8655 14.2574C35.9749 13.9285 36.0314 13.5759 36.0318 13.2197C36.0139 12.4551 35.8794 11.7018 35.6357 11.0002L35.6275 10.998ZM28.913 8.60803C29.8659 8.60832 30.7968 8.96623 31.5853 9.63545C32.3742 10.3055 32.9843 11.256 33.3366 12.3642C33.3664 12.4588 33.3774 12.5609 33.3689 12.6619C33.3601 12.7628 33.3317 12.8595 33.2863 12.9437C33.2408 13.0278 33.1796 13.0968 33.108 13.1447C33.0364 13.1927 32.9565 13.2179 32.8753 13.2182H24.9501C24.8688 13.2183 24.7888 13.1931 24.7173 13.1447C24.6456 13.0962 24.5845 13.0271 24.5387 12.9441C24.4928 12.861 24.4646 12.7633 24.4564 12.6619C24.4479 12.5609 24.459 12.4588 24.4887 12.3642C24.8411 11.256 25.4511 10.3055 26.2401 9.63545C27.0298 8.96958 27.9599 8.61199 28.9124 8.60803H28.913ZM49.7312 20.5329C48.8176 20.5332 47.9233 20.2043 47.1553 19.5856C46.3865 18.9644 45.775 18.0824 45.3922 17.0428C45.0134 16.0018 44.8818 14.8466 45.0131 13.7147C45.1444 12.5828 45.533 11.522 46.1327 10.6585L44.1933 8.58819C43.5654 9.5001 43.088 10.5584 42.7887 11.7021C42.4886 12.8458 42.3717 14.0523 42.4449 15.2525C42.5177 16.4526 42.7798 17.6233 43.2089 18.6971C43.6439 19.7703 44.2441 20.7256 44.9749 21.5082C45.7054 22.2905 46.5522 22.8849 47.4668 23.2573C48.3811 23.6296 49.3452 23.7719 50.3036 23.6762C51.2623 23.5805 52.1963 23.2483 53.0517 22.6987C53.9076 22.1497 54.6684 21.3947 55.2903 20.4771L53.3509 18.4075C52.9046 19.0735 52.3469 19.6088 51.7171 19.9758C51.0877 20.3431 50.4016 20.533 49.7071 20.5322L49.7312 20.5329Z" fill="white"/>
<path d="M49.7312 5.417C48.6825 5.41538 47.646 5.69743 46.6927 6.24379C45.7387 6.79028 44.8903 7.58798 44.2056 8.58232L46.1391 10.6526C46.9627 9.46572 48.1282 8.73433 49.3814 8.61798C50.6346 8.50164 51.8737 9.0098 52.8284 10.0316C53.7833 11.0551 54.3767 12.5084 54.4798 14.0759C54.5823 15.6436 54.1856 17.1985 53.3761 18.4024L55.3097 20.4719C56.2094 19.1397 56.7864 17.5141 56.9729 15.786C57.159 14.0575 56.9466 12.2985 56.3605 10.7158C55.7746 9.13386 54.8392 7.79436 53.6647 6.85525C52.4889 5.91961 51.1248 5.42084 49.7312 5.417V5.417Z" fill="white"/>
<path d="M14.7652 19.3806C14.5443 19.1411 14.2645 19.0033 13.9724 18.99C13.6802 18.9768 13.3932 19.0889 13.159 19.3078C12.4542 19.9823 11.6126 20.3967 10.7293 20.5043C9.84595 20.6118 8.95618 20.4081 8.16059 19.9163C7.36492 19.4236 6.69475 18.6635 6.22528 17.7211C5.75589 16.7777 5.50642 15.6892 5.50497 14.5782C5.50352 13.4671 5.75014 12.3776 6.21706 11.4323C6.6836 10.4878 7.35185 9.72492 8.14649 9.22977C8.94073 8.73414 9.83011 8.52658 10.7139 8.63063C11.5976 8.73467 12.4404 9.14615 13.1467 9.81845C13.3782 10.0416 13.6639 10.1585 13.9561 10.1497C14.2482 10.1408 14.5291 10.0068 14.7517 9.76994C14.8957 9.61561 15.0103 9.42453 15.0867 9.2092C15.1631 8.99386 15.2019 8.75869 15.1984 8.52204C15.1948 8.2854 15.1478 8.05316 15.0632 7.84224C14.9786 7.63131 14.8563 7.44538 14.7076 7.30133C13.6249 6.2649 12.3317 5.62842 10.9745 5.46402C9.61685 5.29906 8.24939 5.61351 7.02747 6.37167C5.80555 7.12983 4.77814 8.30131 4.06194 9.75304C3.34467 11.2049 2.96588 12.8784 2.96827 14.585C2.97066 16.2916 3.35413 17.9634 4.07546 19.4122C4.7966 20.8594 5.82735 22.0252 7.05101 22.7776C8.27468 23.53 9.64236 23.839 10.9992 23.6696C12.3558 23.4995 13.6472 22.8576 14.727 21.8168C14.8738 21.6729 14.9931 21.49 15.0764 21.2812C15.1596 21.0725 15.2047 20.8433 15.2083 20.6101C15.2121 20.3769 15.1743 20.1457 15.0978 19.933C15.0212 19.7204 14.9078 19.5316 14.7658 19.3806H14.7652Z" fill="white"/>
</svg>
