<svg width="40" height="21" viewBox="0 0 40 21" fill="none" xmlns="http://www.w3.org/2000/svg">
<path fill-rule="evenodd" clip-rule="evenodd" d="M37.6454 0.713931H34.084L32.6152 3.84454H35.1105L37.6454 0.713931ZM39.9997 5.80399H36.5387V14.182C36.5387 16.7499 34.9895 17.4703 33.863 17.4703C32.7762 17.4703 31.5891 17.0202 31.6095 14.7907V5.80399H28.1287L28.1085 15.3532C28.1085 19.0472 30.0001 20.691 32.6155 20.691C34.4264 20.7135 35.8351 19.8123 36.6195 18.2589H36.66V20.2856H40V5.80399H39.9997V5.80399ZM25.4121 9.63312C25.4121 6.05174 22.052 5.39859 20.1805 5.39859C17.4643 5.39859 14.6675 6.05174 14.2453 10.489H17.6054C17.706 9.63312 18.0279 8.46195 19.7583 8.46195C20.6436 8.46195 22.052 8.55173 22.052 10.1511C22.052 10.9619 21.3679 11.2094 20.8045 11.2998L17.6859 11.8178C15.4726 12.1556 13.8227 13.6196 13.8227 16.4574C13.8227 19.4529 15.875 20.6913 17.8468 20.6913C20.221 20.6913 21.3478 19.4748 22.1124 18.597C22.1929 19.3853 22.2532 19.588 22.4547 20.2856L25.4325 20.2637C25.4325 18.6643 25.4124 17.4931 25.4124 17.4703V9.63312H25.4121V9.63312ZM22.052 15.1061V13.2364C21.6898 13.5292 21.1063 13.7772 19.6778 14.0018C18.37 14.2499 17.3036 14.6331 17.3036 16.2093C17.3036 17.5156 18.2694 17.9439 18.9333 17.9439C20.4625 17.9439 22.052 16.8625 22.052 15.1061V15.1061ZM10.6236 0.713931H7.16288V5.78147H5.37216V8.507H7.14276V17.3126C7.14276 19.1823 7.68601 20.4658 10.684 20.4658H11.1467C11.6897 20.4658 12.2533 20.421 12.7765 20.3985V17.4928C12.535 17.5153 12.2735 17.5607 12.0521 17.5607C10.6437 17.5607 10.6035 17.2454 10.6035 16.367L10.6236 8.507H12.7966V5.78147H10.6236V0.713931V0.713931ZM3.76252 0.691406H0.0201206L0 20.2637H3.7424L3.76252 0.691406V0.691406Z" fill="white"/>
</svg>
